<?xml version="1.0" encoding="utf-8"?>
<!-- Generator: IcoMoon.io  -->
<!DOCTYPE svg PUBLIC "-//W3C//DTD SVG 1.1//EN" "http://www.w3.org/Graphics/SVG/1.1/DTD/svg11.dtd">
<svg width="224" height="32" viewBox="0 0 224 32" data-tags="paragraph-justify, wysiwyg, justify" style="margin-left: 0px; margin-top: 0px;" xmlns="http://www.w3.org/2000/svg" fill="#000000"><path d="M0.00,32.00L 512.00,32.00L 512.00,96.00L0.00,96.00zM0.00,128.00L 512.00,128.00L 512.00,192.00L0.00,192.00zM0.00,224.00L 512.00,224.00L 512.00,288.00L0.00,288.00zM0.00,320.00L 512.00,320.00L 512.00,384.00L0.00,384.00zM0.00,416.00L 512.00,416.00L 512.00,480.00L0.00,480.00z" transform="scale(0.0625 0.0625)"></path><path d="M 96,6.076c-1.177,0.522-2.443,0.875-3.771,1.034c 1.355-0.813, 2.396-2.099, 2.887-3.632
	c-1.269,0.752-2.674,1.299-4.169,1.593c-1.198-1.276-2.904-2.073-4.792-2.073c-3.626,0-6.565,2.939-6.565,6.565
	c0,0.515, 0.058,1.016, 0.17,1.496c-5.456-0.274-10.294-2.888-13.532-6.86c-0.565,0.97-0.889,2.097-0.889,3.301
	c0,2.278, 1.159,4.287, 2.921,5.465c-1.076-0.034-2.088-0.329-2.974-0.821c-0.001,0.027-0.001,0.055-0.001,0.083
	c0,3.181, 2.263,5.834, 5.266,6.438c-0.551,0.15-1.131,0.23-1.73,0.23c-0.423,0-0.834-0.041-1.235-0.118
	c 0.836,2.608, 3.26,4.506, 6.133,4.559c-2.247,1.761-5.078,2.81-8.154,2.81c-0.53,0-1.052-0.031-1.566-0.092
	c 2.905,1.863, 6.356,2.95, 10.064,2.95c 12.076,0, 18.679-10.004, 18.679-18.68c0-0.285-0.006-0.568-0.019-0.849
	C 94.007,8.548, 95.12,7.392, 96,6.076z"></path><path d="M 132.259,23.467c-2.35,0-4.259,1.917-4.259,4.252c0,2.349, 1.909,4.244, 4.259,4.244
		c 2.358,0, 4.265-1.895, 4.265-4.244C 136.525,25.383, 134.618,23.467, 132.259,23.467zM 128.005,10.873l0,6.133 c 3.993,0, 7.749,1.562, 10.577,4.391c 2.825,2.822, 4.384,6.595, 4.384,10.603l 6.16,0 
		C 149.125,20.349, 139.648,10.873, 128.005,10.873zM 128.012,0l0,6.136 c 14.243,0, 25.836,11.604, 25.836,25.864L 160,32 C 160,14.36, 145.648,0, 128.012,0z"></path><path d="M 218.667,0L 197.333,0 C 194.387,0, 192,2.388, 192,5.334l0,21.332 C 192,29.612, 194.387,32, 197.333,32l 21.334,0 
	C 221.613,32, 224,29.612, 224,26.666L 224,5.334 C 224,2.388, 221.613,0, 218.667,0z M 209.551,21.379
	c-1.454-0.113-2.064-0.833-3.203-1.525c-0.627,3.287-1.393,6.438-3.661,8.084
	c-0.7-4.968, 1.028-8.699, 1.83-12.66c-1.368-2.303, 0.165-6.939, 3.051-5.796
	c 3.551,1.405-3.075,8.563, 1.373,9.457c 4.644,0.933, 6.54-8.058, 3.661-10.982
	c-4.161-4.222-12.112-0.096-11.135,5.949c 0.238,1.478, 1.765,1.926, 0.61,3.966c-2.663-0.59-3.458-2.691-3.356-5.491
	c 0.165-4.584, 4.118-7.793, 8.084-8.236c 5.015-0.561, 9.722,1.841, 10.372,6.559
	C 217.91,16.026, 214.914,21.793, 209.551,21.379z"></path></svg>